<?xml version="1.0" encoding="utf-8"?>
<!-- Generator: Adobe Illustrator 22.0.1, SVG Export Plug-In . SVG Version: 6.00 Build 0)  -->
<svg version="1.1" id="Layer_1" xmlns="http://www.w3.org/2000/svg" xmlns:xlink="http://www.w3.org/1999/xlink" x="0px" y="0px"
	 viewBox="0 0 512 512" style="enable-background:new 0 0 512 512;" xml:space="preserve">
<style type="text/css">
	.st0{opacity:0.4;fill:#221F1F;}
	.st1{fill:#297FCA;}
	.st2{fill:#135187;}
	.st3{fill:#24363C;}
	.st4{fill:#8BC543;}
	.st5{fill:#006738;}
	.st6{fill:#A85134;}
	.st7{fill:#984321;}
	.st8{fill:#3D0A13;}
	.st9{opacity:0.3;fill:#4A191E;}
	.st10{fill:#FFFFFF;}
	.st11{fill:#DB9C32;}
	.st12{clip-path:url(#SVGID_2_);fill:#F3EFDB;}
</style>
<ellipse class="st0" cx="244.2" cy="419.5" rx="158" ry="17.2"/>
<path class="st1" d="M366.2,413.8c0,4.5-3.7,8.2-8.2,8.2H143.9c-4.5,0-8.2-3.7-8.2-8.2V246.6c0-4.5,3.7-8.2,8.2-8.2H358
	c4.5,0,8.2,3.7,8.2,8.2V413.8z"/>
<path class="st2" d="M358,413.8c0,4.5-3.7,8.2-8.2,8.2H135.8c-4.5,0-8.2-3.7-8.2-8.2V246.6c0-4.5,3.7-8.2,8.2-8.2h214.1
	c4.5,0,8.2,3.7,8.2,8.2V413.8z"/>
<g>
	<path class="st1" d="M259.1,247.8c0,4.5-3.7,8.2-8.2,8.2h-82c-4.5,0-8.2-3.7-8.2-8.2V123.3c0-4.5,3.7-8.2,8.2-8.2h82
		c4.5,0,8.2,3.7,8.2,8.2V247.8z"/>
	<rect x="225.6" y="115.2" class="st3" width="21.7" height="140.8"/>
</g>
<g>
	<g>
		<g>
			<polygon class="st4" points="429.9,230.9 362.6,167 209,288.1 276.3,352 			"/>
			<path class="st5" d="M363,159.3l75.8,71.9L275.9,359.7l-75.8-71.9L363,159.3z M421,230.5l-58.8-55.8L217.9,288.5l58.8,55.8
				L421,230.5z"/>
		</g>
		<path class="st5" d="M346.5,285.1c16.4-12.9,17.5-34.8,2.6-49c-14.9-14.1-40.3-15.2-56.6-2.3c-16.4,12.9-17.5,34.8-2.6,49
			C304.8,297,330.1,298,346.5,285.1z"/>
		<path class="st5" d="M228.6,272.7L209,288.1l17.9,17C237.8,296.6,238.5,282,228.6,272.7z"/>
		<g>
			<g>
				<path class="st4" d="M307.3,266.6c3.3,0,7.3-1.3,12.1-3.8c4.8-2.5,8-3.9,9.7-4.2c1.7-0.3,3.2,0.2,4.4,1.3
					c2.8,2.6,1.9,5.7-2.6,9.3c-4.8,3.8-9.2,4.3-13,1.6l-7,6.4c7.6,5,16,3.9,25-3.2c3.8-3,6.3-6.4,7.6-10.2c1.3-3.8,0.5-7.2-2.5-10
					c-2.5-2.4-5.5-3.7-8.9-3.7c-3.4-0.1-7.4,1.1-11.9,3.5c-4.6,2.4-7.7,3.9-9.6,4.4c-1.8,0.5-3.3,0.2-4.5-0.9
					c-1.9-1.8-0.9-4.3,3.1-7.5c4-3.1,7.1-3.8,9.3-2l7.4-6.2c-5.7-4.7-12.9-3.6-21.6,3.3c-4.4,3.5-6.9,6.9-7.6,10.3
					c-0.7,3.4,0.2,6.2,2.5,8.4C301.3,265.6,304.1,266.6,307.3,266.6z"/>
			</g>
			<polygon class="st4" points="308.7,242.3 302.8,236.7 295.6,242.3 301.6,248 			"/>
			<polygon class="st4" points="344.2,275.9 338.2,270.3 331.1,276 337,281.6 			"/>
		</g>
		<path class="st5" d="M294.9,335.5c-9.9-9.4-26.7-10-37.5-1.5l17.9,17L294.9,335.5z"/>
		<path class="st5" d="M428.8,229.8l-17.9-17c-10.8,8.5-11.6,23.1-1.7,32.4L428.8,229.8z"/>
		<path class="st5" d="M380.5,184l-17.9-17L343,182.5C352.9,191.9,369.7,192.5,380.5,184z"/>
		<path class="st5" d="M276.4,304.1c3.7-2.9,4-7.9,0.6-11.1c-3.4-3.2-9.1-3.4-12.8-0.5c-3.7,2.9-4,7.9-0.6,11.1
			C266.9,306.8,272.7,307,276.4,304.1z"/>
		<path class="st5" d="M374.8,226.5c3.7-2.9,4-7.9,0.6-11.1c-3.4-3.2-9.1-3.4-12.8-0.5c-3.7,2.9-4,7.9-0.6,11.1
			C365.4,229.2,371.1,229.4,374.8,226.5z"/>
	</g>
	<g>
		<g>
			<polygon class="st4" points="395.5,154.8 308.2,112.8 207.3,270 294.6,311.9 			"/>
			<path class="st5" d="M305.8,105.4l98.3,47.2L297,319.3l-98.3-47.2L305.8,105.4z M387,156.9l-76.3-36.7l-94.8,147.6l76.3,36.7
				L387,156.9z"/>
		</g>
		<path class="st5" d="M281.9,242.7c19.4,9.3,43.8,3.3,54.5-13.5c10.8-16.7,3.8-37.9-15.6-47.2c-19.4-9.3-43.8-3.3-54.5,13.5
			C255.6,212.3,262.6,233.4,281.9,242.7z"/>
		<path class="st5" d="M220.2,249.9L207.3,270l23.2,11.2C237.6,270,233,256.1,220.2,249.9z"/>
		<g>
			<g>
				<path class="st4" d="M283.6,221.8c2.9,1.4,5.8,1.6,8.9,0.7c3.1-0.9,6.4-3.2,10-6.9c3.6-3.7,6.1-5.9,7.6-6.6
					c1.5-0.7,3.1-0.7,4.7,0c3.6,1.7,3.9,4.9,1,9.5c-3.2,4.9-7.1,6.6-11.8,5.1l-4.2,8c9.1,2.7,16.6-0.7,22.5-10
					c2.5-3.8,3.6-7.8,3.4-11.7c-0.2-4-2.2-6.9-6.1-8.8c-3.3-1.6-6.6-1.9-9.8-1.1c-3.3,0.9-6.6,3.1-10,6.6c-3.4,3.5-5.9,5.8-7.4,6.8
					c-1.5,1-3.1,1.1-4.6,0.4c-2.5-1.2-2.5-3.8,0.2-7.9c2.6-4.1,5.3-5.6,8.1-4.5l4.7-7.9c-7.1-2.9-13.5,0.2-19.3,9.1
					c-2.9,4.5-4,8.4-3.4,11.8C278.7,217.9,280.5,220.3,283.6,221.8z"/>
			</g>
			<polygon class="st4" points="284.9,199.1 277.2,195.4 272.5,202.7 280.2,206.4 			"/>
			<polygon class="st4" points="330.9,221.2 323.2,217.5 318.5,224.8 326.2,228.5 			"/>
		</g>
		<path class="st5" d="M306.1,291.2c-12.8-6.2-29-2.2-36.1,8.9l23.2,11.1L306.1,291.2z"/>
		<path class="st5" d="M381.3,174.2l12.9-20.1L370.9,143C363.8,154,368.4,168,381.3,174.2z"/>
		<path class="st5" d="M331.4,124l-23.2-11.1l-12.9,20.1C308.1,139.1,324.3,135.1,331.4,124z"/>
		<path class="st5" d="M264.7,269.6c4.4,2.1,9.9,0.7,12.3-3c2.4-3.8,0.9-8.5-3.5-10.6c-4.4-2.1-9.9-0.7-12.3,3
			C258.7,262.7,260.3,267.5,264.7,269.6z"/>
		<path class="st5" d="M329.4,168.9c4.4,2.1,9.9,0.7,12.3-3c2.4-3.8,0.8-8.5-3.5-10.6c-4.4-2.1-9.9-0.7-12.3,3
			C323.4,162,325,166.8,329.4,168.9z"/>
	</g>
	<g>
		<g>
			<polygon class="st4" points="290.1,150.7 191,140 165.2,318.4 264.4,329.1 			"/>
			<path class="st5" d="M185.5,133.9l111.6,12l-27.3,189.2l-111.6-12L185.5,133.9z M283.1,155.4l-86.6-9.3l-24.2,167.6l86.6,9.3
				L283.1,155.4z"/>
		</g>
		<path class="st5" d="M222.7,269c22,2.4,42-11.1,44.7-30.1c2.7-19-12.8-36.3-34.8-38.7c-22-2.4-42,11.1-44.8,30.1
			C185.1,249.3,200.7,266.6,222.7,269z"/>
		<path class="st5" d="M168.5,295.6l-3.3,22.8l26.3,2.8C193.4,308.7,183.1,297.2,168.5,295.6z"/>
		<g>
			<g>
				<path class="st4" d="M215.2,249c3.2,0.3,6.1-0.4,8.6-2.2c2.5-1.9,4.6-5.1,6.3-9.6c1.7-4.6,3.1-7.5,4.2-8.6
					c1.1-1.2,2.5-1.7,4.3-1.5c4.1,0.4,5.8,3.3,5,8.5c-0.8,5.6-3.7,8.4-8.7,8.6l-0.4,8.8c9.6-0.5,15.1-6,16.6-16.5
					c0.6-4.4,0-8.4-1.9-12c-1.9-3.6-5-5.7-9.4-6.2c-3.8-0.4-6.9,0.3-9.6,2.2c-2.6,1.9-4.8,5-6.4,9.4c-1.6,4.4-3,7.3-4,8.7
					c-1,1.4-2.4,2-4.1,1.8c-2.9-0.3-3.9-2.8-3.3-7.4c0.7-4.6,2.5-6.9,5.6-6.8l0.9-8.9c-7.8-0.3-12.5,4.5-13.9,14.7
					c-0.7,5.1-0.1,9.1,1.9,12.1C209,247,211.7,248.6,215.2,249z"/>
			</g>
			<polygon class="st4" points="206.6,227.5 197.9,226.6 196.7,234.9 205.4,235.9 			"/>
			<polygon class="st4" points="258.8,233.2 250.1,232.2 248.9,240.5 257.6,241.5 			"/>
		</g>
		<path class="st5" d="M266.1,306.1c-14.6-1.6-27.8,7.4-29.6,19.9l26.3,2.8L266.1,306.1z"/>
		<path class="st5" d="M285.2,173.3l3.3-22.8l-26.3-2.8C260.4,160.3,270.7,171.7,285.2,173.3z"/>
		<path class="st5" d="M217.3,142.9L191,140l-3.3,22.8C202.2,164.4,215.5,155.4,217.3,142.9z"/>
		<path class="st5" d="M218.3,299.5c5,0.5,9.5-2.5,10.1-6.8c0.6-4.3-2.9-8.2-7.9-8.7c-5-0.5-9.5,2.5-10.1,6.8
			C209.8,295,213.3,298.9,218.3,299.5z"/>
		<path class="st5" d="M234.8,185.2c5,0.5,9.5-2.5,10.1-6.8c0.6-4.3-2.9-8.2-7.9-8.7c-5-0.5-9.5,2.5-10.1,6.8
			C226.3,180.7,229.8,184.6,234.8,185.2z"/>
	</g>
</g>
<g>
	<path class="st6" d="M242.2,260.8c1.9,4.1,0.2,8.9-3.9,10.9L164,306.5c-4.1,1.9-8.9,0.2-10.8-3.9l-52.9-112.7
		c-1.9-4.1-0.2-8.9,3.9-10.8l74.2-34.9c4.1-1.9,8.9-0.2,10.8,3.9L242.2,260.8z"/>
	<path class="st7" d="M100.4,189.9l52.9,112.7c1.9,4.1,6.8,5.8,10.8,3.9l74.2-34.8c2.4-1.1,4-3.3,4.5-5.7l-139.8-86.1
		C99.9,182.1,98.7,186.3,100.4,189.9z"/>
	
		<rect x="184" y="143.9" transform="matrix(0.9052 -0.4249 0.4249 0.9052 -72.5931 103.0929)" class="st8" width="21.7" height="140.8"/>
</g>
<path class="st1" d="M350.7,413.8c0,4.5-3.7,8.2-8.2,8.2H128.4c-4.5,0-8.2-3.7-8.2-8.2V246.6c0-4.5,3.7-8.2,8.2-8.2h214.1
	c4.5,0,8.2,3.7,8.2,8.2V413.8z"/>
<path class="st9" d="M127.7,238.4c-4.5,0-8.2,3.7-8.2,8.2v167.2c0,4.5,3.7,8.2,8.2,8.2h108.1V238.4H127.7z"/>
<g>
	<rect x="120.3" y="248.3" class="st10" width="1.9" height="0.8"/>
	<path class="st10" d="M334.9,412.1h-3.3v-0.8h3.3c0.2,0,0.3,0,0.5,0l0,0.8C335.3,412.1,335.1,412.1,334.9,412.1z M327.9,412.1H324
		v-0.8h3.8V412.1z M320.2,412.1h-3.8v-0.8h3.8V412.1z M312.6,412.1h-3.8v-0.8h3.8V412.1z M305,412.1h-3.8v-0.8h3.8V412.1z
		 M297.4,412.1h-3.8v-0.8h3.8V412.1z M289.8,412.1H286v-0.8h3.8V412.1z M282.2,412.1h-3.8v-0.8h3.8V412.1z M274.5,412.1h-3.8v-0.8
		h3.8V412.1z M266.9,412.1h-3.8v-0.8h3.8V412.1z M259.3,412.1h-3.8v-0.8h3.8V412.1z M251.7,412.1h-3.8v-0.8h3.8V412.1z M244.1,412.1
		h-3.8v-0.8h3.8V412.1z M236.5,412.1h-3.8v-0.8h3.8V412.1z M228.8,412.1H225v-0.8h3.8V412.1z M221.2,412.1h-3.8v-0.8h3.8V412.1z
		 M213.6,412.1h-3.8v-0.8h3.8V412.1z M206,412.1h-3.8v-0.8h3.8V412.1z M198.4,412.1h-3.8v-0.8h3.8V412.1z M190.8,412.1h-3.8v-0.8
		h3.8V412.1z M183.1,412.1h-3.8v-0.8h3.8V412.1z M175.5,412.1h-3.8v-0.8h3.8V412.1z M167.9,412.1h-3.8v-0.8h3.8V412.1z M160.3,412.1
		h-3.8v-0.8h3.8V412.1z M152.7,412.1h-3.8v-0.8h3.8V412.1z M145.1,412.1h-3.8v-0.8h3.8V412.1z M137.4,412.1h-3.8v-0.8h3.8V412.1z
		 M129.8,412.1H126v-0.8h3.8V412.1z M339.3,411l-0.4-0.7c1-0.6,1.9-1.5,2.6-2.5l0.6,0.4C341.4,409.3,340.4,410.3,339.3,411z
		 M343.4,404.5l-0.8-0.1c0-0.3,0-0.5,0-0.8v-3h0.8v3C343.5,403.9,343.4,404.2,343.4,404.5z M343.5,396.8h-0.8V393h0.8V396.8z
		 M343.5,389.2h-0.8v-3.8h0.8V389.2z M343.5,381.6h-0.8v-3.8h0.8V381.6z M343.5,374h-0.8v-3.8h0.8V374z M343.5,366.4h-0.8v-3.8h0.8
		V366.4z M343.5,358.7h-0.8v-3.8h0.8V358.7z M343.5,351.1h-0.8v-3.8h0.8V351.1z M343.5,343.5h-0.8v-3.8h0.8V343.5z M343.5,335.9
		h-0.8v-3.8h0.8V335.9z M343.5,328.3h-0.8v-3.8h0.8V328.3z M343.5,320.7h-0.8v-3.8h0.8V320.7z M343.5,313.1h-0.8v-3.8h0.8V313.1z
		 M343.5,305.4h-0.8v-3.8h0.8V305.4z M343.5,297.8h-0.8V294h0.8V297.8z M343.5,290.2h-0.8v-3.8h0.8V290.2z M343.5,282.6h-0.8v-3.8
		h0.8V282.6z M343.5,275h-0.8v-3.8h0.8V275z M343.5,267.4h-0.8v-3.8h0.8V267.4z M343.5,259.7h-0.8v-2.9c0-0.3,0-0.6,0-0.8l0.8-0.1
		c0,0.3,0,0.6,0,0.9V259.7z M341.5,252.6c-0.7-1-1.6-1.9-2.6-2.5l0.4-0.7c1.1,0.7,2.1,1.6,2.8,2.7L341.5,252.6z M335.4,249
		c-0.2,0-0.3,0-0.5,0h-3.3v-0.8h3.3c0.2,0,0.4,0,0.5,0L335.4,249z M327.8,249H324v-0.8h3.8V249z M320.2,249h-3.8v-0.8h3.8V249z
		 M312.6,249h-3.8v-0.8h3.8V249z M305,249h-3.8v-0.8h3.8V249z M297.4,249h-3.8v-0.8h3.8V249z M289.8,249h-3.8v-0.8h3.8V249z
		 M282.1,249h-3.8v-0.8h3.8V249z M274.5,249h-3.8v-0.8h3.8V249z M266.9,249h-3.8v-0.8h3.8V249z M259.3,249h-3.8v-0.8h3.8V249z
		 M251.7,249h-3.8v-0.8h3.8V249z M244.1,249h-3.8v-0.8h3.8V249z M236.4,249h-3.8v-0.8h3.8V249z M228.8,249H225v-0.8h3.8V249z
		 M221.2,249h-3.8v-0.8h3.8V249z M213.6,249h-3.8v-0.8h3.8V249z M206,249h-3.8v-0.8h3.8V249z M198.4,249h-3.8v-0.8h3.8V249z
		 M190.7,249h-3.8v-0.8h3.8V249z M183.1,249h-3.8v-0.8h3.8V249z M175.5,249h-3.8v-0.8h3.8V249z M167.9,249h-3.8v-0.8h3.8V249z
		 M160.3,249h-3.8v-0.8h3.8V249z M152.7,249h-3.8v-0.8h3.8V249z M145,249h-3.8v-0.8h3.8V249z M137.4,249h-3.8v-0.8h3.8V249z
		 M129.8,249H126v-0.8h3.8V249z"/>
	<rect x="120.3" y="411.4" class="st10" width="1.9" height="0.8"/>
</g>
<path class="st8" d="M366.2,354.1c0,4.5-3.2,8.2-7.2,8.2h-78.4c-4,0-7.2-3.7-7.2-8.2V316c0-4.5,3.2-8.2,7.2-8.2H359
	c4,0,7.2,3.7,7.2,8.2V354.1z"/>
<path class="st1" d="M366.2,349.2c0,4.5-3.1,8.2-7,8.2h-76.1c-3.9,0-7-3.7-7-8.2v-38.1c0-4.5,3.1-8.2,7-8.2h76.1c3.9,0,7,3.7,7,8.2
	V349.2z"/>
<path class="st10" d="M366.2,354.5h-3.8v-0.8h3.8V354.5z M358.5,354.5h-3.8v-0.8h3.8V354.5z M350.9,354.5h-3.8v-0.8h3.8V354.5z
	 M343.2,354.5h-3.8v-0.8h3.8V354.5z M335.6,354.5h-3.8v-0.8h3.8V354.5z M327.9,354.5h-3.8v-0.8h3.8V354.5z M320.3,354.5h-3.8v-0.8
	h3.8V354.5z M312.7,354.5h-3.8v-0.8h3.8V354.5z M305,354.5h-3.8v-0.8h3.8V354.5z M297.4,354.5h-3.8v-0.8h3.8V354.5z M289.7,354.5
	h-2.1c-0.6,0-1.2-0.1-1.8-0.3l0.2-0.7c0.5,0.2,1,0.2,1.6,0.2h2.1V354.5z M282.6,351.9c-0.8-1.1-1.3-2.3-1.5-3.7l0.8-0.1
	c0.1,1.2,0.6,2.4,1.3,3.3L282.6,351.9z M281.8,344.3h-0.8v-3.8h0.8V344.3z M281.8,336.7h-0.8v-3.8h0.8V336.7z M281.8,329h-0.8v-3.8
	h0.8V329z M281.8,321.4h-0.8v-3.8h0.8V321.4z M281.9,313.8l-0.8-0.1c0.2-1.4,0.7-2.6,1.5-3.7l0.6,0.5
	C282.6,311.4,282.1,312.6,281.9,313.8z M286.2,308.5l-0.2-0.7c0.5-0.2,1.1-0.2,1.7-0.2h2.2v0.8h-2.2
	C287.1,308.3,286.6,308.3,286.2,308.5z M366.2,308.3h-3.7v-0.8h3.7V308.3z M358.7,308.3h-3.8v-0.8h3.8V308.3z M351,308.3h-3.8v-0.8
	h3.8V308.3z M343.4,308.3h-3.8v-0.8h3.8V308.3z M335.7,308.3h-3.8v-0.8h3.8V308.3z M328.1,308.3h-3.8v-0.8h3.8V308.3z M320.4,308.3
	h-3.8v-0.8h3.8V308.3z M312.8,308.3H309v-0.8h3.8V308.3z M305.1,308.3h-3.8v-0.8h3.8V308.3z M297.5,308.3h-3.8v-0.8h3.8V308.3z"/>
<g>
	<path class="st11" d="M321.6,329.5c0,8.2-6.6,14.8-14.8,14.8c-8.2,0-14.8-6.6-14.8-14.8s6.6-14.8,14.8-14.8
		C315,314.7,321.6,321.3,321.6,329.5z"/>
	<g>
		<defs>
			<path id="SVGID_1_" d="M321.6,329.5c0,8.2-6.6,14.8-14.8,14.8c-8.2,0-14.8-6.6-14.8-14.8s6.6-14.8,14.8-14.8
				C315,314.7,321.6,321.3,321.6,329.5z"/>
		</defs>
		<clipPath id="SVGID_2_">
			<use xlink:href="#SVGID_1_"  style="overflow:visible;"/>
		</clipPath>
		
			<rect x="277" y="322.2" transform="matrix(0.7071 -0.7071 0.7071 0.7071 -143.1887 310.0388)" class="st12" width="51.4" height="11.4"/>
		
			<rect x="284.3" y="333.3" transform="matrix(0.7071 -0.7071 0.7071 0.7071 -146.2365 317.4117)" class="st12" width="51.4" height="3.8"/>
	</g>
</g>
</svg>
